<?xml version="1.0" standalone="no"?>
<!DOCTYPE svg PUBLIC "-//W3C//DTD SVG 20010904//EN"
 "http://www.w3.org/TR/2001/REC-SVG-20010904/DTD/svg10.dtd">
<svg version="1.0" xmlns="http://www.w3.org/2000/svg"
 width="1280.000000pt" height="640.000000pt" viewBox="0 0 1280.000000 640.000000"
 preserveAspectRatio="xMidYMid meet">

<g transform="translate(0.000000,640.000000) scale(0.100000,-0.100000)"
fill="#000000" stroke="none">
<path d="M6135 5576 l-390 -173 0 -308 0 -309 572 -356 c314 -195 574 -358
577 -361 3 -3 -79 -46 -183 -96 l-189 -91 -349 207 c-191 113 -369 219 -395
234 l-48 28 0 -273 0 -273 396 -234 395 -234 162 77 c89 42 286 136 437 209
l275 133 3 300 2 300 -555 344 c-305 190 -555 348 -555 351 0 8 224 99 244 99
7 0 199 -104 426 -231 227 -127 419 -233 427 -236 11 -4 13 49 13 291 0 296 0
296 -22 310 -61 40 -832 466 -842 465 -6 0 -186 -78 -401 -173z"/>
<path d="M8420 1935 l0 -735 150 0 150 0 0 735 0 735 -150 0 -150 0 0 -735z"/>
<path d="M5678 2650 c-82 -25 -138 -96 -138 -175 0 -49 33 -119 68 -144 73
-51 162 -47 229 12 85 74 85 189 0 264 -20 18 -53 37 -74 42 -43 12 -48 12
-85 1z"/>
<path d="M6030 1905 l0 -705 150 0 150 0 0 46 0 46 42 -36 c110 -95 303 -111
458 -38 74 34 178 140 219 220 47 93 64 179 58 297 -10 213 -117 376 -303 462
-126 58 -328 38 -421 -42 -23 -19 -44 -35 -47 -35 -3 0 -6 110 -6 245 l0 245
-150 0 -150 0 0 -705z m614 31 c99 -30 155 -102 164 -212 6 -81 -16 -149 -66
-197 -49 -48 -98 -67 -172 -67 -132 0 -220 79 -236 213 -22 183 134 316 310
263z"/>
<path d="M7227 2604 c-4 -4 -7 -322 -7 -706 l0 -698 155 0 155 0 0 40 0 40 48
-33 c66 -47 122 -67 211 -74 247 -19 460 161 507 427 39 222 -52 447 -228 561
-151 97 -370 92 -500 -11 -20 -17 -38 -30 -40 -30 -2 0 -3 109 -3 242 l0 243
-146 3 c-80 1 -148 -1 -152 -4z m651 -683 c81 -42 122 -113 122 -212 0 -86
-18 -137 -65 -184 -44 -45 -97 -65 -170 -65 -73 0 -126 20 -170 65 -47 47 -65
98 -65 184 0 119 63 203 175 232 44 12 131 1 173 -20z"/>
<path d="M3256 2219 c-58 -14 -137 -56 -178 -96 -74 -72 -105 -200 -74 -307
32 -108 123 -173 325 -230 130 -37 151 -49 151 -86 0 -91 -202 -74 -255 22
l-20 36 -128 -71 c-70 -40 -127 -77 -127 -83 0 -22 74 -111 123 -147 157 -116
474 -112 615 9 23 20 54 57 69 82 24 40 28 60 31 142 4 89 2 98 -25 150 -50
95 -117 133 -354 204 -94 28 -114 43 -105 80 15 60 124 58 185 -4 l37 -38 122
66 c67 37 122 72 122 78 0 20 -78 101 -130 134 -76 48 -157 70 -258 69 -48 -1
-104 -5 -126 -10z"/>
<path d="M4211 2215 c-138 -39 -263 -139 -323 -260 -46 -92 -59 -148 -59 -258
0 -155 49 -274 155 -375 164 -158 403 -195 613 -96 59 28 167 123 196 173 21
35 35 22 -132 119 l-104 61 -41 -43 c-99 -102 -274 -84 -353 35 -32 49 -43
153 -23 214 52 156 278 201 383 75 14 -16 29 -30 33 -30 13 0 254 144 254 152
0 20 -93 118 -147 155 -99 66 -161 85 -288 89 -77 3 -126 -1 -164 -11z"/>
<path d="M5430 2219 c-95 -14 -167 -58 -211 -127 l-28 -45 -3 79 -3 79 -147 3
-148 3 0 -506 0 -505 150 0 150 0 0 258 c0 289 4 309 73 369 45 39 96 57 169
57 l58 1 0 167 c0 92 -3 169 -7 171 -5 2 -28 0 -53 -4z"/>
<path d="M9205 2211 c-241 -69 -387 -281 -372 -541 16 -284 210 -476 505 -496
119 -9 215 9 310 57 78 39 180 128 168 147 -3 6 -56 38 -117 73 -92 51 -114
60 -128 50 -56 -41 -107 -56 -191 -56 -111 1 -178 34 -216 107 l-14 28 357 2
358 3 8 61 c6 44 4 88 -7 150 -36 213 -172 368 -367 419 -73 20 -219 18 -294
-4z m260 -268 c53 -27 105 -87 105 -123 0 -6 -70 -10 -210 -10 -142 0 -210 3
-210 11 0 32 50 93 95 117 64 33 158 35 220 5z"/>
<path d="M5570 1705 l0 -505 150 0 150 0 -2 503 -3 502 -147 3 -148 3 0 -506z"/>
</g>
</svg>
