<svg xmlns="http://www.w3.org/2000/svg" width="1280" height="640" viewBox="0 0 1280 640" version="1.1"><path d="M 613.500 82.279 L 574.500 99.571 574.282 130.535 L 574.065 161.500 631.492 197 C 663.077 216.525, 688.938 232.812, 688.960 233.193 C 689.009 234.046, 654.220 251, 652.421 251 C 651.711 251, 634.425 241.102, 614.009 229.005 C 593.592 216.908, 576.013 206.542, 574.944 205.970 C 573.041 204.951, 573 205.501, 573 232.242 L 573 259.554 611.701 282.527 C 632.987 295.162, 650.974 305.643, 651.673 305.818 C 652.372 305.993, 672.528 296.768, 696.463 285.318 L 739.982 264.500 739.991 234.359 L 740 204.218 684.552 169.859 C 654.055 150.961, 629.080 135.241, 629.052 134.925 C 628.948 133.775, 653.080 124.817, 654.653 125.421 C 655.543 125.762, 674.327 136.130, 696.395 148.460 C 718.463 160.790, 737.302 171.179, 738.259 171.546 C 739.890 172.172, 740 170.322, 739.996 142.357 L 739.991 112.500 697.946 89 C 674.821 76.075, 655.136 65.385, 654.200 65.244 C 653.265 65.103, 634.950 72.768, 613.500 82.279 M 752.432 404 C 752.432 417.475, 752.574 422.988, 752.747 416.250 C 752.920 409.512, 752.920 398.488, 752.747 391.750 C 752.574 385.012, 752.432 390.525, 752.432 404 M 488.458 420.250 C 488.195 420.938, 488.101 443.550, 488.249 470.500 L 488.519 519.500 488.760 469.777 L 489 420.053 503.750 419.748 L 518.500 419.442 503.719 419.221 C 492.648 419.056, 488.817 419.314, 488.458 420.250 M 564.250 419.743 C 568.513 419.931, 575.487 419.931, 579.750 419.743 C 584.013 419.556, 580.525 419.402, 572 419.402 C 563.475 419.402, 559.987 419.556, 564.250 419.743" stroke="none" fill="#a700ff" fill-rule="evenodd"/><path d="M 842 447 L 842 520 856.500 520 L 871 520 871 447 L 871 374 856.500 374 L 842 374 842 447 M 564.316 376.943 C 557.023 380.254, 552.873 389.100, 554.965 396.871 C 558.112 408.558, 571.636 413.477, 581.915 406.675 C 592.353 399.767, 591.067 382.599, 579.698 377.096 C 574.359 374.511, 569.773 374.466, 564.316 376.943 M 604 450 L 604 520 618.500 520 L 633 520 633 514.915 L 633 509.830 637.665 513.936 C 644.399 519.864, 653.194 522.361, 665.448 521.825 C 673.738 521.463, 675.597 521.009, 682.237 517.727 C 700.084 508.907, 710.300 491.571, 710.364 470 C 710.443 443.319, 693.667 421.786, 669.708 417.816 C 657.972 415.871, 644.725 419.312, 636.143 426.534 L 633 429.178 633 404.589 L 633 380 618.500 380 L 604 380 604 450 M 723 450 L 723 520 737.500 520 L 752 520 752 514.896 L 752 509.793 755.704 513.045 C 757.742 514.834, 761.904 517.468, 764.954 518.899 C 769.935 521.235, 771.672 521.497, 782 521.475 C 791.506 521.454, 794.461 521.064, 799.042 519.230 C 811.382 514.290, 822.940 501.368, 827.233 487.710 C 830.231 478.174, 830.407 461.275, 827.593 453 C 824.503 443.909, 821.349 438.491, 815.421 432.088 C 805.883 421.786, 790.853 415.973, 777.614 417.466 C 769.618 418.368, 762.161 421.315, 757.262 425.508 C 755.018 427.429, 752.916 429, 752.591 429 C 752.266 429, 752 417.975, 752 404.500 L 752 380 737.500 380 L 723 380 723 450 M 327.389 418.423 C 319.565 420.209, 313.495 423.267, 308.665 427.856 C 303.051 433.191, 300.762 438.306, 300.211 446.746 C 299.023 464.929, 307.124 473.373, 332.933 480.858 C 343.938 484.049, 348.313 486.464, 348.788 489.608 C 350.004 497.666, 332.033 498.967, 324.437 491.370 C 322.547 489.480, 321 487.273, 321 486.467 C 321 485.660, 320.773 485, 320.495 485 C 320.217 485, 314.372 488.201, 307.506 492.114 L 295.022 499.229 296.761 502.339 C 301.548 510.901, 312.701 518.551, 323.799 520.885 C 330.621 522.320, 344.419 522.315, 351.201 520.875 C 362.548 518.465, 373.115 510.757, 376.642 502.315 C 379.013 496.641, 379.467 487.119, 377.664 480.915 C 374.406 469.710, 366.095 463.613, 346.289 457.897 C 329.687 453.106, 327.054 451.091, 330.806 446.049 C 332.383 443.931, 333.653 443.449, 338.321 443.201 C 343.676 442.916, 344.145 443.093, 348.369 446.986 L 352.799 451.069 364.149 444.918 C 370.392 441.534, 375.850 438.446, 376.278 438.055 C 377.368 437.059, 369.664 428.553, 364.375 424.914 C 354.836 418.351, 339.499 415.659, 327.389 418.423 M 424 418.567 C 402.613 423.198, 386.964 440.011, 383.794 461.761 C 380.119 486.971, 393.215 509.819, 416.660 519.101 C 421.685 521.091, 424.315 521.418, 435.500 521.447 C 446.800 521.476, 449.250 521.179, 454.236 519.174 C 462.897 515.690, 471.647 509.382, 476.221 503.323 C 481.117 496.839, 481.675 497.666, 466.639 489.143 L 455.779 482.987 451.929 486.954 C 441.592 497.605, 422.915 495.218, 415.305 482.272 C 412.896 478.174, 412.503 476.441, 412.523 470 C 412.541 464.233, 413.054 461.540, 414.744 458.347 C 421.979 444.674, 440.756 441.726, 451.606 452.560 L 455.712 456.659 466.606 450.282 C 472.598 446.774, 478.133 443.531, 478.907 443.075 C 482.463 440.977, 470.189 428.182, 459.665 423.014 C 452.777 419.632, 441.817 417.003, 435 417.097 C 432.525 417.131, 427.575 417.792, 424 418.567 M 926.763 418.033 C 909.820 420.886, 895.930 430.980, 889.018 445.462 C 885.135 453.597, 883.825 459.770, 883.791 470.085 C 883.740 485.373, 889.031 498.058, 899.573 507.919 C 910.068 517.737, 921.913 521.959, 939.040 521.985 C 955.186 522.010, 967.135 517.489, 976.808 507.694 L 981.947 502.490 970.272 495.773 C 959.975 489.849, 958.409 489.225, 957.011 490.490 C 951.206 495.744, 938.385 497.768, 928.478 494.994 C 922.925 493.439, 915 486.402, 915 483.026 C 915 481.029, 915.513 481, 950.455 481 L 985.909 481 986.593 477.356 C 986.969 475.351, 987.018 470.052, 986.703 465.579 C 984.459 433.784, 957.976 412.777, 926.763 418.033 M 537.129 420.130 C 532.277 421.666, 529.604 423.300, 525.920 426.984 C 523.260 429.645, 520.790 432.987, 520.433 434.411 C 519.137 439.575, 518 436.813, 518 428.500 L 518 420 503.500 420 L 489 420 489 470 L 489 520 503.500 520 L 518 520 518 495.943 C 518 481.917, 518.454 470.083, 519.088 467.564 C 521.454 458.169, 529.762 452.040, 541.250 451.216 L 548 450.731 548 434.366 C 548 415.453, 548.759 416.447, 537.129 420.130 M 557 470 L 557 520 571.500 520 L 586 520 586 470 L 586 420 571.500 420 L 557 420 557 470 M 927.500 444.155 C 922.680 445.923, 918.132 449.820, 915.991 454.018 C 914.896 456.164, 914 458.388, 914 458.960 C 914 459.648, 921.438 460, 936 460 C 954.092 460, 958 459.754, 958 458.613 C 958 455.759, 951.421 447.599, 947.500 445.590 C 942.872 443.219, 932.150 442.449, 927.500 444.155 M 646.500 446.848 C 637.814 450.990, 633 458.926, 633 469.102 C 633 480.353, 636.989 487.833, 645.347 492.256 C 651.154 495.329, 662.801 495.360, 668.500 492.318 C 677.376 487.581, 681.359 480.459, 681.338 469.366 C 681.327 463.297, 680.874 461.432, 678.306 456.866 C 673.865 448.971, 667.986 445.586, 658.078 445.220 C 652.258 445.006, 649.572 445.383, 646.500 446.848 M 767.239 446.335 C 758.623 449.459, 753.064 457.336, 752.241 467.583 C 750.695 486.848, 767.136 499.603, 785.464 493.357 C 795.654 489.885, 801.727 479.651, 800.759 467.583 C 799.612 453.298, 790.300 444.872, 775.884 445.076 C 772.923 445.118, 769.032 445.684, 767.239 446.335" stroke="none" fill="#000000" fill-rule="evenodd"/><path d="M 856.244 373.748 L 870.987 374.053 871.250 447.277 L 871.513 520.500 871.757 446.750 L 872 373 856.750 373.221 L 841.500 373.442 856.244 373.748 M 603.243 449.750 L 603.486 520.500 603.750 450.277 L 604.013 380.053 618.757 379.748 L 633.500 379.442 618.250 379.221 L 603 379 603.243 449.750 M 722.460 380.250 C 722.197 380.938, 722.102 412.550, 722.248 450.500 L 722.514 519.500 722.757 449.777 L 723 380.053 737.750 379.748 L 752.500 379.442 737.719 379.221 C 726.648 379.056, 722.817 379.314, 722.460 380.250 M 548.409 434.500 C 548.408 443.850, 548.558 447.810, 548.743 443.299 C 548.928 438.789, 548.929 431.139, 548.745 426.299 C 548.562 421.460, 548.410 425.150, 548.409 434.500 M 518.116 428.250 C 518.052 433.063, 518.352 437, 518.783 437 C 519.213 437, 519.415 433.738, 519.231 429.750 C 518.734 418.997, 518.247 418.342, 518.116 428.250 M 586.464 470 C 586.464 497.775, 586.592 509.138, 586.749 495.250 C 586.906 481.363, 586.906 458.638, 586.749 444.750 C 586.592 430.863, 586.464 442.225, 586.464 470 M 957 457.980 C 957 458.582, 948.598 459.073, 935.250 459.251 L 913.500 459.541 935.750 459.771 C 954.963 459.969, 958 459.795, 958 458.500 C 958 457.675, 957.775 457, 957.500 457 C 957.225 457, 957 457.441, 957 457.980 M 518.435 495 C 518.435 509.025, 518.575 514.763, 518.747 507.750 C 518.919 500.738, 518.919 489.262, 518.747 482.250 C 518.575 475.238, 518.435 480.975, 518.435 495 M 986 479.321 C 986 480.823, 982.730 481, 950.250 481.250 L 914.500 481.526 950.281 481.763 C 981.753 481.971, 986.134 481.814, 986.655 480.457 C 986.981 479.608, 986.966 478.633, 986.624 478.290 C 986.281 477.947, 986 478.411, 986 479.321 M 333.776 522.733 C 336.128 522.945, 339.728 522.942, 341.776 522.727 C 343.824 522.512, 341.900 522.339, 337.500 522.343 C 333.100 522.346, 331.424 522.522, 333.776 522.733 M 431.728 522.722 C 433.503 522.943, 436.653 522.946, 438.728 522.730 C 440.802 522.513, 439.350 522.333, 435.500 522.328 C 431.650 522.324, 429.952 522.501, 431.728 522.722 M 935.250 522.728 C 937.313 522.944, 940.688 522.944, 942.750 522.728 C 944.813 522.513, 943.125 522.336, 939 522.336 C 934.875 522.336, 933.188 522.513, 935.250 522.728" stroke="none" fill="#050505" fill-rule="evenodd"/><path d="M 0 320.001 L 0 640.002 640.250 639.751 L 1280.500 639.500 1280.752 319.750 L 1281.003 0 640.502 0 L 0 0 0 320.001 M 0.494 320.500 C 0.494 496.500, 0.609 568.351, 0.750 480.169 C 0.891 391.987, 0.891 247.987, 0.750 160.169 C 0.609 72.351, 0.494 144.500, 0.494 320.500 M 613.500 82.279 L 574.500 99.571 574.282 130.535 L 574.065 161.500 631.492 197 C 663.077 216.525, 688.938 232.812, 688.960 233.193 C 689.009 234.046, 654.220 251, 652.421 251 C 651.711 251, 634.425 241.102, 614.009 229.005 C 593.592 216.908, 576.013 206.542, 574.944 205.970 C 573.041 204.951, 573 205.501, 573 232.242 L 573 259.554 611.701 282.527 C 632.987 295.162, 650.974 305.643, 651.673 305.818 C 652.372 305.993, 672.528 296.768, 696.463 285.318 L 739.982 264.500 739.991 234.359 L 740 204.218 684.552 169.859 C 654.055 150.961, 629.080 135.241, 629.052 134.925 C 628.948 133.775, 653.080 124.817, 654.653 125.421 C 655.543 125.762, 674.327 136.130, 696.395 148.460 C 718.463 160.790, 737.302 171.179, 738.259 171.546 C 739.890 172.172, 740 170.322, 739.996 142.357 L 739.991 112.500 697.946 89 C 674.821 76.075, 655.136 65.385, 654.200 65.244 C 653.265 65.103, 634.950 72.768, 613.500 82.279 M 842 446.500 L 842 520 857 520 L 872 520 872 446.500 L 872 373 857 373 L 842 373 842 446.500 M 567.120 375.153 C 562.025 376.618, 559.176 378.843, 556.459 383.480 C 548.565 396.949, 561.005 414.038, 575.803 410.053 C 583.867 407.882, 590 400.299, 590 392.500 C 590 384.893, 583.936 377.187, 576.277 375.060 C 571.919 373.850, 571.639 373.853, 567.120 375.153 M 603 449.500 L 603 520 618 520 L 633 520 633 515.422 L 633 510.844 637.171 514.414 C 642.547 519.016, 650.686 522.037, 659.538 522.717 C 672.753 523.731, 684.130 519.552, 694.458 509.890 C 716.163 489.587, 716.752 452.158, 695.704 430.780 C 687.143 422.085, 677.568 417.739, 665.728 417.173 C 654.329 416.628, 646.075 418.748, 638.512 424.163 L 633 428.110 633 403.555 L 633 379 618 379 L 603 379 603 449.500 M 722 449.474 L 722 520 737.500 520 L 753 520 753 516.051 L 753 512.101 758.750 516.028 C 775.596 527.532, 799.369 524.555, 814.974 508.987 C 825.160 498.824, 830.317 485.760, 830.364 470 C 830.437 445.333, 815.784 424.224, 794.611 418.493 C 781.237 414.872, 762.763 418.298, 755.830 425.683 L 753.500 428.165 753 403.832 L 752.500 379.500 737.250 379.224 L 722 378.948 722 449.474 M 324.230 418.550 C 309.367 422.552, 300.247 432.972, 299.227 447.116 C 297.964 464.641, 307.380 474.237, 332.939 481.472 C 345.937 485.152, 348 486.331, 348 490.077 C 348 492.584, 347.406 493.350, 344.532 494.551 C 336.617 497.858, 326.274 494.690, 322.454 487.788 L 320.399 484.076 307.950 491.163 C 301.102 495.060, 295.314 498.416, 295.088 498.620 C 294.407 499.233, 296.832 503.894, 299.757 507.594 C 306.568 516.209, 319.070 521.799, 333.500 522.680 C 354.107 523.938, 370.024 516.827, 376.575 503.435 C 378.806 498.877, 379.263 496.590, 379.263 490 C 379.263 483.377, 378.809 481.130, 376.530 476.472 C 371.742 466.686, 364.721 462.410, 343.661 456.458 C 332.031 453.170, 329.417 451.460, 330.349 447.746 C 330.810 445.908, 332.053 444.808, 334.628 443.958 C 339.555 442.332, 345.270 444.104, 349.371 448.529 L 352.500 451.906 364.750 445.293 C 371.488 441.656, 377 438.141, 377 437.481 C 377 435.504, 369.322 427.402, 364.288 424.067 C 354.274 417.434, 337.140 415.075, 324.230 418.550 M 421.112 418.581 C 388.229 427.424, 372.741 465.175, 389.239 496.271 C 393.082 503.513, 403.921 513.871, 411.321 517.372 C 432.075 527.190, 456.796 523.554, 472.414 508.387 C 477.057 503.877, 481.806 496.777, 480.494 496.306 C 479.947 496.110, 474.131 492.853, 467.568 489.070 L 455.637 482.190 451.568 486.367 C 442.932 495.234, 428.263 495.304, 419.480 486.520 C 414.947 481.988, 413 476.753, 413 469.102 C 413 456.038, 422.116 446.976, 435.210 447.022 C 442.683 447.048, 448.444 449.362, 452.227 453.858 C 453.681 455.586, 455.171 457, 455.537 457 C 456.828 457, 481 442.715, 481 441.952 C 481 440.473, 473.205 431.331, 469.365 428.306 C 464.405 424.399, 456.949 420.653, 450.068 418.612 C 443.304 416.605, 428.519 416.589, 421.112 418.581 M 543 418.059 C 533.528 419.542, 526.276 423.919, 521.925 430.779 L 519.089 435.252 518.794 427.376 L 518.500 419.500 503.500 419.500 L 488.500 419.500 488.500 469.500 L 488.500 519.500 503.750 519.776 L 519 520.052 519.022 494.276 C 519.047 465.334, 519.438 463.334, 526.257 457.347 C 530.762 453.392, 535.923 451.634, 543.249 451.559 L 548.998 451.500 548.999 434.809 C 548.999 425.629, 548.663 417.946, 548.250 417.736 C 547.837 417.526, 545.475 417.672, 543 418.059 M 921.112 418.522 C 889.009 427.506, 873.661 463.730, 888.707 495 C 892.361 502.592, 902.821 512.838, 911 516.836 C 927.051 524.681, 948.679 524.941, 964.457 517.477 C 970.451 514.641, 982.314 504.442, 981.713 502.640 C 981.516 502.048, 976.212 498.569, 969.927 494.910 L 958.500 488.256 955.683 490.619 C 951.387 494.225, 942.774 496.361, 935.336 495.667 C 926.258 494.819, 919.635 491.009, 916.386 484.763 L 914.962 482.025 950.725 481.763 L 986.488 481.500 987.327 475.500 C 989.682 458.660, 981.344 437.793, 968.109 427.405 C 958.952 420.218, 951.567 417.753, 938 417.353 C 929.889 417.114, 924.912 417.458, 921.112 418.522 M 557 469.500 L 557 520 572 520 L 587 520 587 469.500 L 587 419 572 419 L 557 419 557 469.500 M 931.500 443.952 C 926.623 444.769, 922.209 447.027, 919.375 450.155 C 916.992 452.785, 915 456.327, 915 457.934 C 915 458.655, 921.803 459, 936 459 C 959.506 459, 959.074 459.164, 954.013 452.177 C 949.190 445.518, 940.688 442.412, 931.500 443.952 M 649.904 446.318 C 637.323 449.862, 630.401 463.647, 634.374 477.246 C 637.581 488.219, 645.348 493.956, 657 493.956 C 671.405 493.956, 681.080 484.129, 680.956 469.624 C 680.811 452.683, 666.211 441.725, 649.904 446.318 M 770.500 445.881 C 763.175 447.796, 757.256 452.746, 754.553 459.218 C 751.212 467.216, 753.324 481.198, 758.805 487.374 C 761.994 490.966, 770.066 493.980, 776.500 493.980 C 782.934 493.980, 791.006 490.966, 794.195 487.374 C 797.763 483.354, 799.956 476.660, 799.978 469.718 C 800.012 459.165, 796.125 452.196, 787.824 447.926 C 783.609 445.758, 774.902 444.730, 770.500 445.881" stroke="none" fill="#fbfbfb" fill-rule="evenodd"/></svg>